<svg width="91" height="101" viewBox="0 0 91 101" fill="none" xmlns="http://www.w3.org/2000/svg">
<path d="M78.3916 82.6157C76.3644 83.4438 74.2245 83.8061 72.0919 83.6825C68.39 83.4719 64.8758 81.8244 62.1087 79.002C59.3416 76.1797 57.4805 72.3448 56.8215 68.1076L78.3916 82.6157Z" fill="#1E2CFB"/>
<path d="M80.3427 81.6934L80.2768 81.7271L56.5896 65.795C56.4158 62.247 57.089 58.6955 58.5348 55.5333C59.9807 52.3711 62.1428 49.7213 64.7821 47.8769L65.4733 47.3814L58.6576 33.9694L19.7737 0.753658L19.3141 1.07516C14.9547 4.13007 11.3076 8.40087 8.70902 13.4938C6.11042 18.5867 4.64397 24.3377 4.44489 30.2168C4.24581 36.0959 5.3205 41.9137 7.56987 47.1339C9.81924 52.3541 13.1709 56.8087 17.3158 60.0869L52.6939 90.4494C56.939 94.9628 62.2352 97.9288 67.9447 98.99C73.6541 100.051 79.5332 99.1624 84.8738 96.4308L85.6113 96.0525L80.3427 81.6934ZM78.3911 82.6263C76.3638 83.4544 74.224 83.8168 72.0914 83.6931C68.3894 83.4826 64.8753 81.835 62.1082 79.0127C59.341 76.1904 57.4799 72.3555 56.821 68.1183L78.3911 82.6263ZM18.2668 58.5758L18.2427 58.5558C14.2858 55.4135 11.0896 51.1476 8.94921 46.1519C5.80597 38.7887 5.16302 30.2758 7.14678 22.2877C9.13055 14.2996 13.5975 7.4144 19.6689 2.9864L57.1664 35.0212C53.7741 37.5631 50.8407 40.8599 48.5382 44.7179C46.2357 48.576 44.6105 52.9177 43.7581 57.4883C42.9056 62.0589 42.843 66.7663 43.574 71.3343C44.3049 75.9023 45.8147 80.2389 48.0147 84.0896L18.2668 58.5758ZM71.3292 97.5198C65.3097 97.1877 59.5684 94.6376 54.9322 90.2369C50.296 85.8361 47.004 79.8118 45.5306 73.0316C44.0572 66.2513 44.4783 59.0652 46.7332 52.5081C48.9882 45.9509 52.9606 40.3613 58.0784 36.5442L63.2854 46.7858C60.0681 49.2656 57.5876 52.8508 56.1968 57.031C54.8061 61.2112 54.5761 65.7735 55.5395 70.0685C56.5029 74.3634 58.6107 78.1722 61.5628 80.9527C64.5149 83.7331 68.1609 85.3435 71.9819 85.5548C74.53 85.7048 77.0855 85.2199 79.4779 84.1323L83.4914 95.0952C79.6254 96.9358 75.4722 97.7656 71.3289 97.5251L71.3292 97.5198Z" fill="#1E2CFB"/>
<path d="M83.4982 95.0956C79.6301 96.9373 75.4744 97.7669 71.3289 97.5251C65.3081 97.1946 59.5652 94.6451 54.9277 90.244C50.2901 85.8429 46.9973 79.8174 45.5238 73.0357C44.0502 66.2541 44.4719 59.0664 46.7281 52.5084C48.9844 45.9503 52.9587 40.3605 58.0784 36.5442L63.2854 46.7858C60.0681 49.2656 57.5875 52.8508 56.1968 57.031C54.8061 61.2113 54.5761 65.7735 55.5395 70.0685C56.5029 74.3635 58.6107 78.1722 61.5628 80.9527C64.5149 83.7331 68.1609 85.3436 71.9819 85.5548C74.53 85.7048 77.0855 85.2199 79.4779 84.1324L83.4982 95.0956Z" fill="#F2CFFF"/>
<path d="M43.1268 62.7397C42.7009 70.3298 44.4163 77.8321 48.0116 84.1027L18.2645 58.5757L18.2404 58.5557C14.2835 55.4134 11.0873 51.1475 8.94686 46.1518C5.80362 38.7885 5.16067 30.2756 7.14443 22.2875C9.12819 14.2994 13.5951 7.41424 19.6666 2.98624L57.1641 35.021C53.1217 38.05 49.7403 42.1435 47.2994 46.9634C44.8586 51.7832 43.4283 57.191 43.1268 62.7397Z" fill="#1E2CFB"/>
</svg>
