<svg width="191" height="161" viewBox="0 0 191 161" fill="none" xmlns="http://www.w3.org/2000/svg">
<path d="M179.095 82.6707C149.061 2.39475 120.819 16.3808 107.644 34.483C94.4702 52.5851 105.916 129.801 143.344 112.723C180.772 95.6453 102.367 19.3037 69.09 42.7316C35.8126 66.1595 84.6643 139.498 96.9462 133.894C116.547 127.826 -26.9876 -7.83084 47.289 149.265" stroke="#0A0A0A" stroke-width="7"/>
<path d="M174.091 80.0324C144.058 -0.243552 115.815 13.7425 102.64 31.8446C89.4663 49.9468 100.912 127.162 138.34 110.085C175.768 93.0069 97.3635 16.6654 64.0861 40.0933C30.8087 63.5212 79.6604 136.859 91.9422 131.255C111.543 125.188 -31.9916 -10.4691 42.2851 146.627" stroke="#B0C139" stroke-width="7"/>
</svg>
