<svg width="114" height="114" viewBox="0 0 114 114" fill="none" xmlns="http://www.w3.org/2000/svg">
<mask id="mask0_15_130" style="mask-type:alpha" maskUnits="userSpaceOnUse" x="0" y="0" width="114" height="114">
<circle cx="57" cy="57" r="57" fill="#C4C4C4"/>
</mask>
<g mask="url(#mask0_15_130)">
<path d="M-15.2555 27.5566C-15.2555 27.5566 8.3582 23.1823 14.4508 7.87265C20.2776 -6.80336 44.2799 -10.7482 44.2799 -10.7482" stroke="#B6FF9C" stroke-width="2.5" stroke-miterlimit="10"/>
<path d="M-15.2555 34.9148C-15.2555 34.9148 13.7148 29.8662 21.1772 11.3884C28.292 -6.25147 57.7121 -10.7482 57.7121 -10.7482" stroke="#B6FF9C" stroke-width="2.5" stroke-miterlimit="10"/>
<path d="M-15.2555 42.2938C-15.2555 42.2938 19.0509 36.5501 27.8831 14.945C36.3064 -5.71994 71.1444 -10.7482 71.1444 -10.7482" stroke="#B6FF9C" stroke-width="2.5" stroke-miterlimit="10"/>
<path d="M-15.2555 49.6522C-15.2555 49.6522 24.4075 43.2341 34.6094 18.4607C44.3207 -5.16805 84.5766 -10.7482 84.5766 -10.7482" stroke="#B6FF9C" stroke-width="2.5" stroke-miterlimit="10"/>
<path d="M-15.2555 57.0107C-15.2555 57.0107 29.764 49.918 41.3358 21.9968C52.335 -4.61616 97.9885 -10.7482 97.9885 -10.7482" stroke="#B6FF9C" stroke-width="2.5" stroke-miterlimit="10"/>
<path d="M-15.2555 64.3895C-15.2555 64.3895 35.1001 56.6223 48.0417 25.5328C60.3699 -4.08479 111.421 -10.7482 111.421 -10.7482" stroke="#B6FF9C" stroke-width="2.5" stroke-miterlimit="10"/>
<path d="M-15.2555 71.7479C-15.2555 71.7479 40.4566 63.2857 54.7681 29.0691C68.3843 -3.5329 124.853 -10.7482 124.853 -10.7482" stroke="#B6FF9C" stroke-width="2.5" stroke-miterlimit="10"/>
<path d="M-15.2555 79.1063C-15.2555 79.1063 45.8133 69.9696 61.4739 32.5848C76.3986 -2.981 138.285 -10.7482 138.285 -10.7482" stroke="#B6FF9C" stroke-width="2.5" stroke-miterlimit="10"/>
<path d="M-15.2555 86.4853C-15.2555 86.4853 51.1492 76.6741 68.2003 36.1413C84.4131 -2.44962 151.697 -10.7482 151.697 -10.7482" stroke="#B6FF9C" stroke-width="2.5" stroke-miterlimit="10"/>
<path d="M-15.2555 93.8432C-15.2555 93.8432 56.5059 83.358 74.9063 39.6775C92.4274 -1.89773 165.129 -10.7482 165.129 -10.7482" stroke="#B6FF9C" stroke-width="2.5" stroke-miterlimit="10"/>
<path d="M-15.2555 101.222C-15.2555 101.222 61.8624 90.0418 81.6326 43.2136C100.442 -1.34585 178.561 -10.7482 178.561 -10.7482" stroke="#B6FF9C" stroke-width="2.5" stroke-miterlimit="10"/>
<path d="M-15.2555 108.581C-15.2555 108.581 67.1985 96.7258 88.3384 46.7498C108.456 -0.814316 191.993 -10.7482 191.993 -10.7482" stroke="#B6FF9C" stroke-width="2.5" stroke-miterlimit="10"/>
<path d="M-15.2555 115.939C-15.2555 115.939 72.555 103.41 95.0648 50.2654C116.471 -0.262428 205.426 -10.7482 205.426 -10.7482" stroke="#B6FF9C" stroke-width="2.5" stroke-miterlimit="10"/>
<path d="M-15.2555 123.318C-15.2555 123.318 77.9116 110.094 101.791 53.822C124.485 0.289465 218.838 -10.7482 218.838 -10.7482" stroke="#B6FF9C" stroke-width="2.5" stroke-miterlimit="10"/>
<path d="M-15.2555 130.677C-15.2555 130.677 83.2477 116.778 108.497 57.3377C132.499 0.820841 232.27 -10.7482 232.27 -10.7482" stroke="#B6FF9C" stroke-width="2.5" stroke-miterlimit="10"/>
<path d="M-15.2555 138.036C-15.2555 138.036 88.6043 123.462 115.223 60.8738C140.514 1.37274 245.702 -10.7482 245.702 -10.7482" stroke="#B6FF9C" stroke-width="2.5" stroke-miterlimit="10"/>
<path d="M-15.2555 145.415C-15.2555 145.415 93.9608 130.165 121.929 64.41C148.528 1.92463 259.134 -10.7482 259.134 -10.7482" stroke="#B6FF9C" stroke-width="2.5" stroke-miterlimit="10"/>
<path d="M-15.2555 152.772C-15.2555 152.772 99.2969 136.829 128.656 67.9461C156.542 2.456 272.547 -10.7482 272.547 -10.7482" stroke="#B6FF9C" stroke-width="2.5" stroke-miterlimit="10"/>
</g>
</svg>
