<svg width="177" height="177" viewBox="0 0 177 177" fill="none" xmlns="http://www.w3.org/2000/svg">
<path d="M177 88.5C177 93.6264 153.197 96.3505 152.253 101.198C151.267 106.196 172.197 117.8 170.288 122.39C168.358 127.066 145.327 120.46 142.561 124.599C139.752 128.782 154.634 147.55 151.095 151.089C147.557 154.628 128.794 139.743 124.612 142.552C120.452 145.341 127.057 168.356 122.403 170.286C117.814 172.195 106.213 151.261 101.216 152.247C96.37 153.213 93.6466 177 88.5214 177C83.3963 177 80.6729 153.191 75.8265 152.247C70.83 151.261 59.2287 172.195 54.6397 170.286C49.9649 168.356 56.5697 145.319 52.4309 142.552C48.2493 139.743 29.4857 154.628 25.9474 151.089C22.4091 147.55 37.2914 128.782 34.4822 124.599C31.6945 120.438 8.68488 127.045 6.75491 122.39C4.84638 117.8 25.7759 106.196 24.7894 101.198C23.803 96.3505 0 93.6264 0 88.5C0 83.3736 23.803 80.6495 24.7465 75.802C25.733 70.8043 4.80349 59.2002 6.71202 54.6101C8.64199 49.9341 31.673 56.5405 34.4393 52.4008C37.2485 48.2181 22.3662 29.45 25.9045 25.9108C29.4428 22.3717 48.2064 37.2575 52.3881 34.4477C56.5482 31.6593 49.9434 8.6441 54.5968 6.71366C59.1858 4.80466 70.7871 25.7392 75.7836 24.7525C80.63 23.7873 83.3534 0 88.4786 0C93.6037 0 96.3271 23.8088 101.173 24.7525C106.17 25.7392 117.771 4.80466 122.36 6.71366C127.035 8.6441 120.43 31.6807 124.569 34.4477C128.751 37.2575 147.514 22.3717 151.053 25.9108C154.591 29.45 139.709 48.2181 142.518 52.4008C145.306 56.5619 168.315 49.9556 170.245 54.6101C172.154 59.2002 151.224 70.8043 152.211 75.802C153.197 80.6495 177 83.3736 177 88.5Z" fill="#B76FEF"/>
</svg>
