<svg width="178" height="138" viewBox="0 0 178 138" fill="none" xmlns="http://www.w3.org/2000/svg">
<path d="M25.709 124.323C-2.20305 43.285 28.4839 36.1028 50.1655 41.6844C71.8471 47.266 112.151 114.116 72.411 124.757C32.6713 135.399 44.5776 26.6168 85.1562 23.5149C125.735 20.4129 134.716 108.073 121.675 111.565C108.634 115.057 82.3412 72.9246 153.257 5.27869" stroke="#111111" stroke-width="7"/>
<path d="M22.035 122.201C-5.877 41.1631 24.8099 33.9809 46.4915 39.5625C68.1732 45.1441 108.477 111.994 68.7371 122.635C28.9973 133.277 40.9036 24.495 81.4823 21.393C122.061 18.291 131.042 105.951 118.001 109.443C104.961 112.935 78.6672 70.8027 149.583 3.1568" stroke="#E42944" stroke-width="7"/>
</svg>
